<svg aria-hidden="true" style="position: absolute; width: 0; height: 0; overflow: hidden;" version="1.1"
     xmlns="http://www.w3.org/2000/svg">
  <defs>
    <symbol id="icon-queue_music" viewBox="0 0 32 32">
      <path d="M22.688 8h6.625v2.688h-4v12q0 1.625-1.188 2.813t-2.813 1.188-2.813-1.188-1.188-2.813 1.188-2.813 2.813-1.188q0.5 0 1.375 0.25v-10.938zM4 21.313v-2.625h10.688v2.625h-10.688zM20 13.313v2.688h-16v-2.688h16zM20 8v2.688h-16v-2.688h16z"></path>
    </symbol>
    <symbol id="icon-devices" viewBox="0 0 32 32">
      <path d="M29.313 22.688v-9.375h-5.313v9.375h5.313zM30.688 10.688q0.563 0 0.938 0.375t0.375 0.938v13.313q0 0.563-0.375 0.969t-0.938 0.406h-8q-0.563 0-0.969-0.406t-0.406-0.969v-13.313q0-0.563 0.406-0.938t0.969-0.375h8zM5.313 8v14.688h13.375v4h-18.688v-4h2.688v-14.688q0-1.063 0.781-1.875t1.844-0.813h24v2.688h-24z"></path>
    </symbol>
    <symbol id="icon-play3" viewBox="0 0 32 32">
      <path d="M6 4l20 12-20 12z"></path>
    </symbol>
    <symbol id="icon-pause2" viewBox="0 0 32 32">
      <path d="M4 4h10v24h-10zM18 4h10v24h-10z"></path>
    </symbol>
    <symbol id="icon-previous2" viewBox="0 0 32 32">
      <path d="M8 28v-24h4v11l10-10v22l-10-10v11z"></path>
    </symbol>
    <symbol id="icon-next2" viewBox="0 0 32 32">
      <path d="M24 4v24h-4v-11l-10 10v-22l10 10v-11z"></path>
    </symbol>
    <symbol id="icon-devices" viewBox="0 0 32 32">
      <path d="M29.313 22.688v-9.375h-5.313v9.375h5.313zM30.688 10.688q0.563 0 0.938 0.375t0.375 0.938v13.313q0 0.563-0.375 0.969t-0.938 0.406h-8q-0.563 0-0.969-0.406t-0.406-0.969v-13.313q0-0.563 0.406-0.938t0.969-0.375h8zM5.313 8v14.688h13.375v4h-18.688v-4h2.688v-14.688q0-1.063 0.781-1.875t1.844-0.813h24v2.688h-24z"></path>
    </symbol>
    <symbol id="icon-cross" viewBox="0 0 32 32">
      <path d="M31.708 25.708c-0-0-0-0-0-0l-9.708-9.708 9.708-9.708c0-0 0-0 0-0 0.105-0.105 0.18-0.227 0.229-0.357 0.133-0.356 0.057-0.771-0.229-1.057l-4.586-4.586c-0.286-0.286-0.702-0.361-1.057-0.229-0.13 0.048-0.252 0.124-0.357 0.228 0 0-0 0-0 0l-9.708 9.708-9.708-9.708c-0-0-0-0-0-0-0.105-0.104-0.227-0.18-0.357-0.228-0.356-0.133-0.771-0.057-1.057 0.229l-4.586 4.586c-0.286 0.286-0.361 0.702-0.229 1.057 0.049 0.13 0.124 0.252 0.229 0.357 0 0 0 0 0 0l9.708 9.708-9.708 9.708c-0 0-0 0-0 0-0.104 0.105-0.18 0.227-0.229 0.357-0.133 0.355-0.057 0.771 0.229 1.057l4.586 4.586c0.286 0.286 0.702 0.361 1.057 0.229 0.13-0.049 0.252-0.124 0.357-0.229 0-0 0-0 0-0l9.708-9.708 9.708 9.708c0 0 0 0 0 0 0.105 0.105 0.227 0.18 0.357 0.229 0.356 0.133 0.771 0.057 1.057-0.229l4.586-4.586c0.286-0.286 0.362-0.702 0.229-1.057-0.049-0.13-0.124-0.252-0.229-0.357z"></path>
    </symbol>
    <symbol id="icon-headphones" viewBox="0 0 32 32">
      <path d="M9 18h-2v14h2c0.55 0 1-0.45 1-1v-12c0-0.55-0.45-1-1-1z"></path>
      <path d="M23 18c-0.55 0-1 0.45-1 1v12c0 0.55 0.45 1 1 1h2v-14h-2z"></path>
      <path d="M32 16c0-8.837-7.163-16-16-16s-16 7.163-16 16c0 1.919 0.338 3.759 0.958 5.464-0.609 1.038-0.958 2.246-0.958 3.536 0 3.526 2.608 6.443 6 6.929v-13.857c-0.997 0.143-1.927 0.495-2.742 1.012-0.168-0.835-0.258-1.699-0.258-2.584 0-7.18 5.82-13 13-13s13 5.82 13 13c0 0.885-0.088 1.749-0.257 2.584-0.816-0.517-1.745-0.87-2.743-1.013v13.858c3.392-0.485 6-3.402 6-6.929 0-1.29-0.349-2.498-0.958-3.536 0.62-1.705 0.958-3.545 0.958-5.465z"></path>
    </symbol>
  </defs>
</svg>
