<svg aria-hidden="true" style="position: absolute; width: 0; height: 0; overflow: hidden;" version="1.1" xmlns="http://www.w3.org/2000/svg" xmlns:xlink="http://www.w3.org/1999/xlink">
  <defs>
    <symbol id="icon-queue_music" viewBox="0 0 32 32">
      <path d="M22.688 8h6.625v2.688h-4v12q0 1.625-1.188 2.813t-2.813 1.188-2.813-1.188-1.188-2.813 1.188-2.813 2.813-1.188q0.5 0 1.375 0.25v-10.938zM4 21.313v-2.625h10.688v2.625h-10.688zM20 13.313v2.688h-16v-2.688h16zM20 8v2.688h-16v-2.688h16z"></path>
    </symbol>
    <symbol id="icon-devices" viewBox="0 0 32 32">
      <path d="M29.313 22.688v-9.375h-5.313v9.375h5.313zM30.688 10.688q0.563 0 0.938 0.375t0.375 0.938v13.313q0 0.563-0.375 0.969t-0.938 0.406h-8q-0.563 0-0.969-0.406t-0.406-0.969v-13.313q0-0.563 0.406-0.938t0.969-0.375h8zM5.313 8v14.688h13.375v4h-18.688v-4h2.688v-14.688q0-1.063 0.781-1.875t1.844-0.813h24v2.688h-24z"></path>
    </symbol>
    <symbol id="icon-play3" viewBox="0 0 32 32">
      <path d="M6 4l20 12-20 12z"></path>
    </symbol>
    <symbol id="icon-pause2" viewBox="0 0 32 32">
      <path d="M4 4h10v24h-10zM18 4h10v24h-10z"></path>
    </symbol>
    <symbol id="icon-previous2" viewBox="0 0 32 32">
      <path d="M8 28v-24h4v11l10-10v22l-10-10v11z"></path>
    </symbol>
    <symbol id="icon-next2" viewBox="0 0 32 32">
      <path d="M24 4v24h-4v-11l-10 10v-22l10 10v-11z"></path>
    </symbol>
    <symbol id="icon-devices" viewBox="0 0 32 32">
      <path d="M29.313 22.688v-9.375h-5.313v9.375h5.313zM30.688 10.688q0.563 0 0.938 0.375t0.375 0.938v13.313q0 0.563-0.375 0.969t-0.938 0.406h-8q-0.563 0-0.969-0.406t-0.406-0.969v-13.313q0-0.563 0.406-0.938t0.969-0.375h8zM5.313 8v14.688h13.375v4h-18.688v-4h2.688v-14.688q0-1.063 0.781-1.875t1.844-0.813h24v2.688h-24z"></path>
    </symbol>
  </defs>
</svg>
